<svg width="16" height="16" viewBox="0 0 16 16" fill="none" xmlns="http://www.w3.org/2000/svg">
<path fill-rule="evenodd" clip-rule="evenodd" d="M15.6701 7.06612L14.5901 5.72612C14.4168 5.50361 14.3097 5.23673 14.2811 4.95612L14.0911 3.25812C14.0526 2.91882 13.9002 2.60258 13.6589 2.36103C13.4175 2.11948 13.1014 1.96687 12.7621 1.92812L11.0631 1.73812C10.7631 1.70812 10.5031 1.57912 10.2831 1.40912L8.94512 0.330117C8.67853 0.117045 8.34739 0.000976563 8.00612 0.000976562C7.66484 0.000976563 7.33371 0.117045 7.06712 0.330117L5.72712 1.41012C5.50472 1.58382 5.23783 1.69127 4.95712 1.72012L3.25912 1.91012C2.55912 1.99012 2.00912 2.54012 1.92912 3.23912L1.73912 4.93812C1.70912 5.23812 1.58012 5.49812 1.41012 5.71812L0.330117 7.05512C0.117045 7.32171 0.000976563 7.65284 0.000976562 7.99412C0.000976563 8.33539 0.117045 8.66653 0.330117 8.93312L1.41012 10.2731C1.58012 10.4931 1.69012 10.7531 1.72012 11.0431L1.91012 12.7411C1.99012 13.4411 2.54012 13.9911 3.23912 14.0711L4.93812 14.2611C5.23812 14.2911 5.49812 14.4201 5.71812 14.5901L7.05712 15.6701C7.60712 16.1091 8.38612 16.1091 8.93512 15.6701L10.2751 14.5901C10.4951 14.4201 10.7551 14.3101 11.0451 14.2801L12.7431 14.0901C13.4431 14.0101 13.9931 13.4601 14.0731 12.7611L14.2631 11.0621C14.2931 10.7621 14.4221 10.5021 14.5921 10.2821L15.6721 8.94312C15.8852 8.67653 16.0013 8.34539 16.0013 8.00412C16.0013 7.66284 15.8852 7.33171 15.6721 7.06512L15.6701 7.06612ZM6.50012 12.0101L3.00012 8.51012L4.50012 7.01012L6.50012 9.01012L11.5001 4.01012L13.0001 5.56012L6.50012 12.0101Z" fill="#4081F1"/>
</svg>
