<svg width="12" height="8" viewBox="0 0 12 8" fill="none" xmlns="http://www.w3.org/2000/svg">
<path d="M2.11998 1.29001L5.99998 5.17001L9.87998 1.29001C9.97256 1.19742 10.0825 1.12399 10.2034 1.07388C10.3244 1.02378 10.454 0.997986 10.585 0.997986C10.7159 0.997986 10.8456 1.02378 10.9665 1.07388C11.0875 1.12399 11.1974 1.19742 11.29 1.29001C11.3826 1.38259 11.456 1.4925 11.5061 1.61346C11.5562 1.73443 11.582 1.86408 11.582 1.99501C11.582 2.12594 11.5562 2.25559 11.5061 2.37655C11.456 2.49751 11.3826 2.60742 11.29 2.70001L6.69998 7.29001C6.60746 7.38271 6.49757 7.45626 6.3766 7.50644C6.25563 7.55662 6.12594 7.58245 5.99498 7.58245C5.86401 7.58245 5.73432 7.55662 5.61335 7.50644C5.49238 7.45626 5.38249 7.38271 5.28998 7.29001L0.699975 2.70001C0.607272 2.60749 0.533724 2.4976 0.483543 2.37663C0.433361 2.25566 0.407532 2.12597 0.407532 1.99501C0.407532 1.86404 0.433361 1.73436 0.483543 1.61338C0.533724 1.49241 0.607272 1.38252 0.699975 1.29001C1.08998 0.910007 1.72998 0.900007 2.11998 1.29001V1.29001Z" fill="black"/>
</svg>
