<svg width="12" height="8" viewBox="0 0 12 8" fill="none" xmlns="http://www.w3.org/2000/svg">
<path d="M2.11998 6.70999L5.99998 2.82999L9.87998 6.70999C9.97256 6.80257 10.0825 6.87601 10.2034 6.92611C10.3244 6.97622 10.454 7.00201 10.585 7.00201C10.7159 7.00201 10.8456 6.97622 10.9665 6.92611C11.0875 6.87601 11.1974 6.80257 11.29 6.70999C11.3826 6.6174 11.456 6.50749 11.5061 6.38653C11.5562 6.26556 11.582 6.13592 11.582 6.00499C11.582 5.87406 11.5562 5.74441 11.5061 5.62344C11.456 5.50248 11.3826 5.39257 11.29 5.29999L6.69998 0.709986C6.60746 0.617282 6.49757 0.543735 6.3766 0.493553C6.25563 0.443372 6.12594 0.417542 5.99498 0.417542C5.86401 0.417542 5.73432 0.443372 5.61335 0.493553C5.49238 0.543735 5.38249 0.617282 5.28998 0.709986L0.699975 5.29999C0.607272 5.3925 0.533724 5.50239 0.483543 5.62336C0.433361 5.74433 0.407532 5.87402 0.407532 6.00499C0.407532 6.13595 0.433361 6.26564 0.483543 6.38661C0.533724 6.50758 0.607272 6.61747 0.699975 6.70999C1.08998 7.08999 1.72998 7.09999 2.11998 6.70999V6.70999Z" fill="black"/>
</svg>
