<svg width="15" height="15" viewBox="0 0 15 15" fill="none" xmlns="http://www.w3.org/2000/svg">
<path d="M13.125 7.27295C13.418 7.47314 13.6792 7.70264 13.9087 7.96143C14.1431 8.21533 14.3408 8.49365 14.502 8.79639C14.6631 9.09424 14.7852 9.41162 14.8682 9.74854C14.9561 10.0854 15 10.4297 15 10.7812C15 11.3623 14.8877 11.9092 14.6631 12.4219C14.4434 12.9346 14.1431 13.3813 13.7622 13.7622C13.3813 14.1431 12.9346 14.4458 12.4219 14.6704C11.9092 14.8901 11.3623 15 10.7812 15C10.3369 15 9.90723 14.9341 9.49219 14.8022C9.07715 14.6655 8.69385 14.4751 8.34229 14.231C7.99561 13.9819 7.68799 13.6841 7.41943 13.3374C7.15576 12.9907 6.95068 12.6074 6.8042 12.1875H0.9375V0.9375H2.8125V0H3.75V0.9375H10.3125V0H11.25V0.9375H13.125V7.27295ZM1.875 1.875V3.75H12.1875V1.875H11.25V2.8125H10.3125V1.875H3.75V2.8125H2.8125V1.875H1.875ZM6.58447 11.25C6.56982 11.0986 6.5625 10.9424 6.5625 10.7812C6.5625 10.3613 6.62109 9.95361 6.73828 9.55811C6.86035 9.1626 7.03857 8.78906 7.27295 8.4375H6.5625V7.5H7.5V8.12988C7.7002 7.88086 7.92236 7.66113 8.1665 7.4707C8.41553 7.27539 8.6792 7.11182 8.95752 6.97998C9.24072 6.84326 9.53613 6.74072 9.84375 6.67236C10.1514 6.59912 10.4639 6.5625 10.7812 6.5625C11.2695 6.5625 11.7383 6.64307 12.1875 6.8042V4.6875H1.875V11.25H6.58447ZM10.7812 14.0625C11.2354 14.0625 11.6602 13.9771 12.0557 13.8062C12.4561 13.6304 12.8027 13.396 13.0957 13.103C13.3936 12.8052 13.6279 12.4585 13.7988 12.063C13.9746 11.6626 14.0625 11.2354 14.0625 10.7812C14.0625 10.3271 13.9746 9.90234 13.7988 9.50684C13.6279 9.10645 13.3936 8.75977 13.0957 8.4668C12.8027 8.16895 12.4561 7.93457 12.0557 7.76367C11.6602 7.58789 11.2354 7.5 10.7812 7.5C10.3271 7.5 9.8999 7.58789 9.49951 7.76367C9.104 7.93457 8.75732 8.16895 8.45947 8.4668C8.1665 8.75977 7.93213 9.10645 7.75635 9.50684C7.58545 9.90234 7.5 10.3271 7.5 10.7812C7.5 11.2354 7.58545 11.6626 7.75635 12.063C7.93213 12.4585 8.1665 12.8052 8.45947 13.103C8.75732 13.396 9.104 13.6304 9.49951 13.8062C9.8999 13.9771 10.3271 14.0625 10.7812 14.0625ZM11.25 10.3125H12.6562V11.25H10.3125V8.4375H11.25V10.3125ZM2.8125 7.5H3.75V8.4375H2.8125V7.5ZM4.6875 7.5H5.625V8.4375H4.6875V7.5ZM4.6875 5.625H5.625V6.5625H4.6875V5.625ZM2.8125 9.375H3.75V10.3125H2.8125V9.375ZM4.6875 9.375H5.625V10.3125H4.6875V9.375ZM7.5 6.5625H6.5625V5.625H7.5V6.5625ZM9.375 6.5625H8.4375V5.625H9.375V6.5625ZM11.25 6.5625H10.3125V5.625H11.25V6.5625Z" fill="#73738D" fill-opacity="0.8"/>
</svg>
