<svg width="12" height="14" viewBox="0 0 12 14" fill="none" xmlns="http://www.w3.org/2000/svg">
<path d="M10.6569 3.54167C10.9246 3.27392 11.072 2.91833 11.072 2.54008C11.072 2.16183 10.9246 1.80625 10.6569 1.5385L9.53346 0.415083C9.26571 0.147333 8.91012 0 8.53187 0C8.15362 0 7.79804 0.147333 7.531 0.414375L0 7.922V11.0493H3.12587L10.6569 3.54167ZM8.53187 1.41667L9.656 2.53938L8.52975 3.66138L7.40633 2.53867L8.53187 1.41667ZM1.41667 9.63263V8.50992L6.40333 3.53883L7.52675 4.66225L2.54079 9.63263H1.41667ZM0 12.466H11.3333V13.8826H0V12.466Z" fill="#ECEEEF" fill-opacity="0.8"/>
</svg>
