<svg width="15" height="15" viewBox="0 0 15 15" fill="none" xmlns="http://www.w3.org/2000/svg">
<path d="M14.5752 5.47852C14.4141 5.63965 14.2554 5.78857 14.0991 5.92529C13.9478 6.05713 13.7891 6.16943 13.623 6.26221C13.4619 6.35498 13.2837 6.42822 13.0884 6.48193C12.8979 6.53076 12.6807 6.55518 12.4365 6.55518C12.2705 6.55518 12.1118 6.54053 11.9604 6.51123L9.18457 9.28711C9.24805 9.47266 9.29443 9.66309 9.32373 9.8584C9.35303 10.0537 9.36768 10.249 9.36768 10.4443C9.36768 10.7617 9.33594 11.0498 9.27246 11.3086C9.20898 11.5674 9.11621 11.8115 8.99414 12.041C8.87695 12.2705 8.73291 12.4902 8.56201 12.7002C8.39111 12.9053 8.19824 13.1152 7.9834 13.3301L5.15625 10.5029L0.996094 14.6704L0 15L0.32959 14.0039L4.49707 9.84375L1.66992 7.0166L1.99951 6.68701C2.34131 6.34521 2.73193 6.08398 3.17139 5.90332C3.61572 5.72266 4.07959 5.63232 4.56299 5.63232C4.96338 5.63232 5.34668 5.69336 5.71289 5.81543L8.48877 3.03955C8.45947 2.88818 8.44482 2.72949 8.44482 2.56348C8.44482 2.32422 8.46924 2.10938 8.51807 1.91895C8.57178 1.72363 8.64502 1.54297 8.73779 1.37695C8.83057 1.21094 8.94287 1.05225 9.07471 0.900879C9.21143 0.744629 9.36035 0.585938 9.52148 0.424805L14.5752 5.47852ZM12.4365 5.61768C12.7051 5.61768 12.959 5.5542 13.1982 5.42725L9.57275 1.80176C9.4458 2.04102 9.38232 2.29492 9.38232 2.56348C9.38232 2.7002 9.39697 2.82959 9.42627 2.95166C9.46045 3.06885 9.49707 3.19092 9.53613 3.31787L5.93262 6.91406C5.81055 6.86523 5.6958 6.81885 5.58838 6.7749C5.48096 6.73096 5.37354 6.69434 5.26611 6.66504C5.15869 6.63574 5.04639 6.61377 4.9292 6.59912C4.81689 6.57959 4.69482 6.56982 4.56299 6.56982C4.28467 6.56982 4.01367 6.61133 3.75 6.69434C3.49121 6.77246 3.24951 6.88965 3.0249 7.0459L7.9541 11.9751C8.11035 11.7505 8.22998 11.5088 8.31299 11.25C8.396 10.9863 8.4375 10.7178 8.4375 10.4443C8.4375 10.3125 8.42773 10.1904 8.4082 10.0781C8.39355 9.96094 8.36914 9.84863 8.33496 9.74121C8.30566 9.62891 8.26904 9.51904 8.2251 9.41162C8.18115 9.3042 8.13477 9.18945 8.08594 9.06738L11.6821 5.46387C11.8091 5.50293 11.9312 5.53955 12.0483 5.57373C12.1704 5.60303 12.2998 5.61768 12.4365 5.61768Z" fill="#73738D"/>
</svg>
